<?xml version="1.0" encoding="UTF-8" standalone="no"?>
<!-- Created with Inkscape (http://www.inkscape.org/) -->

<svg
   version="1.1"
   id="svg1"
   xml:space="preserve"
   width="148.60001"
   height="148.60001"
   xmlns="http://www.w3.org/2000/svg"
   xmlns:svg="http://www.w3.org/2000/svg"><defs
     id="defs1" /><g
     id="g1"
     transform="translate(73.895142,76.72915)"><path
       fill-rule="evenodd"
       fill="#ffffff"
       d="m 50.904858,-15.02915 23.8,2.2 V 7.9708502 l -23.8,2.1999998 -5.9,14.2 15.3,18.3 -14.8,14.8 -18.3,-15.3 -14.2,5.9 -2.2,23.8 H -9.9951417 l -2.2000003,-23.8 -14.2,-5.9 -18.3,15.3 -14.8,-14.8 15.3,-18.3 -5.9,-14.2 -23.8,-2.1999998 V -12.82915 l 23.8,-2.2 5.9,-14.2 -15.3,-18.3 14.8,-14.8 18.3,15.3 14.2,-5.9 2.2000003,-23.8 H 10.804858 l 2.2,23.8 14.2,5.9 18.3,-15.3 14.8,14.8 -15.3,18.3 z m -50.4999997,-11.4 a 24,24 0 1 0 0,48 24,24 0 1 0 0,-48 z"
       id="path1"
       style="fill:#c5c5c5;fill-opacity:1" /></g></svg>

